<svg xmlns="http://www.w3.org/2000/svg" viewBox="0 0 260 150" width="260" height="150" preserveAspectRatio="xMidYMax slice">
  <defs>
    <linearGradient id="sky" x1="0" y1="0" x2="0" y2="1">
      <stop offset="0" stop-color="#bfe3ff"/>
      <stop offset="1" stop-color="#e8f6ff"/>
    </linearGradient>
    <linearGradient id="grass" x1="0" y1="0" x2="0" y2="1">
      <stop offset="0" stop-color="#5cb85c"/>
      <stop offset="1" stop-color="#2f8f3f"/>
    </linearGradient>
  </defs>
  <rect width="260" height="150" fill="url(#sky)"/>
  <path d="M0 78 Q60 58 130 72 T260 66 V150 H0 Z" fill="#8fd07a"/>
  <path d="M0 92 Q80 74 160 90 T260 84 V150 H0 Z" fill="url(#grass)"/>
  <circle cx="215" cy="30" r="14" fill="#fff5cc" opacity="0.9"/>
  <g opacity="0.85" fill="#ffffff">
    <ellipse cx="55" cy="26" rx="18" ry="7"/>
    <ellipse cx="70" cy="22" rx="12" ry="6"/>
    <ellipse cx="170" cy="18" rx="14" ry="6"/>
  </g>
  <!-- cow 1 -->
  <g transform="translate(60 96)">
    <ellipse cx="0" cy="18" rx="26" ry="4" fill="#000" opacity="0.12"/>
    <rect x="-22" y="-2" width="44" height="20" rx="9" fill="#ffffff"/>
    <path d="M-18 2c6-4 10 6 16 2s10 4 14 0v12h-30z" fill="#2b2b2b"/>
    <rect x="-24" y="6" width="8" height="12" rx="3" fill="#ffffff"/>
    <rect x="16" y="6" width="8" height="12" rx="3" fill="#ffffff"/>
    <circle cx="-22" cy="-4" r="7" fill="#ffffff"/>
    <circle cx="-24" cy="-5" r="1.6" fill="#2b2b2b"/>
  </g>
  <!-- cow 2 -->
  <g transform="translate(150 104)">
    <ellipse cx="0" cy="16" rx="24" ry="4" fill="#000" opacity="0.12"/>
    <rect x="-20" y="-2" width="40" height="18" rx="8" fill="#ffffff"/>
    <path d="M-14 0c5 5 9-3 14 1s7-2 9 1v12h-26z" fill="#2b2b2b"/>
    <rect x="-22" y="5" width="7" height="11" rx="3" fill="#ffffff"/>
    <rect x="15" y="5" width="7" height="11" rx="3" fill="#ffffff"/>
    <circle cx="20" cy="-4" r="6.5" fill="#ffffff"/>
    <circle cx="22" cy="-5" r="1.5" fill="#2b2b2b"/>
  </g>
  <!-- cow 3 small -->
  <g transform="translate(210 96) scale(0.7)">
    <rect x="-20" y="-2" width="40" height="18" rx="8" fill="#f1f1f1"/>
    <path d="M-12 2c5 4 8-4 12 0s7-1 8 2v10h-24z" fill="#3a3a3a"/>
    <circle cx="-20" cy="-4" r="6.5" fill="#f1f1f1"/>
  </g>
</svg>
